# MagicaVoxel @ Ephtracy

# group
o 

# material
mtllib island.mtl
usemtl palette

# normals
vn -1 0 0
vn 1 0 0
vn 0 0 1
vn 0 0 -1
vn 0 -1 0
vn 0 1 0

# texcoords
vt 0.0917969 0.5
vt 0.306641 0.5
vt 0.583984 0.5
vt 0.587891 0.5
vt 0.888672 0.5
vt 0.892578 0.5
vt 0.900391 0.5
vt 0.955078 0.5
vt 0.978516 0.5

# verts
v 0 2 0
v 0 2 -12.6
v 0 2.2 0
v 0 2.2 -12.6
v 4.9 2.2 -5.1
v 4.9 2.2 -7.5
v 4.9 2.3 -5.1
v 4.9 2.3 -6.6
v 4.9 2.3 -7.5
v 4.9 2.4 -6.6
v 4.9 2.4 -7.5
v 5 2.3 -5.1
v 5 2.3 -6.6
v 5 2.4 -5.1
v 5 2.4 -5.6
v 5 2.4 -6.6
v 5 2.6 -5.6
v 5 2.6 -6.6
v 5.1 2.2 -5
v 5.1 2.2 -5.1
v 5.1 2.3 -5
v 5.1 2.3 -5.1
v 5.1 2.4 -5.1
v 5.1 2.4 -5.6
v 5.1 2.4 -6.6
v 5.1 2.4 -7.5
v 5.1 2.5 -5
v 5.1 2.5 -5.6
v 5.1 2.6 -6.6
v 5.1 2.6 -7.5
v 5.2 2.5 -4.9
v 5.2 2.5 -5
v 5.2 2.5 -5.6
v 5.2 2.6 -4.9
v 5.2 2.6 -5.6
v 5.3 2.4 -4.9
v 5.3 2.4 -5
v 5.3 2.5 -4.9
v 5.3 2.5 -5
v 5.5 2.2 -4.9
v 5.5 2.2 -5
v 5.5 2.3 -4.9
v 5.5 2.3 -5
v 5.7 2.2 -7.4
v 5.7 2.2 -7.5
v 5.7 2.3 -7.4
v 5.7 2.3 -7.5
v 6 2.3 -5.2
v 6 2.3 -5.3
v 6 2.5 -5.2
v 6 2.5 -5.3
v 6.3 2.2 -4.9
v 6.3 2.2 -5
v 6.3 2.3 -4.9
v 6.3 2.3 -5
v 6.6 2.3 -6.2
v 6.6 2.3 -7
v 6.6 2.4 -6.2
v 6.6 2.4 -7
v 6.7 2.4 -6.3
v 6.7 2.4 -6.9
v 6.7 2.5 -6.3
v 6.7 2.5 -6.9
v 7.1 2.2 -4.9
v 7.1 2.2 -5
v 7.1 2.3 -4.9
v 7.1 2.3 -5
v 5.1 2.5 -5.6
v 5.1 2.5 -6.6
v 5.1 2.6 -5.6
v 5.1 2.6 -6.6
v 5.2 2.3 -5.9
v 5.2 2.3 -6
v 5.2 2.4 -6.2
v 5.2 2.4 -6.4
v 5.2 2.5 -5.9
v 5.2 2.5 -6
v 5.2 2.5 -6.2
v 5.2 2.5 -6.4
v 5.3 2.2 -7.4
v 5.3 2.2 -7.5
v 5.3 2.3 -6.8
v 5.3 2.3 -6.9
v 5.3 2.3 -7.4
v 5.3 2.3 -7.5
v 5.3 2.4 -5.6
v 5.3 2.4 -5.9
v 5.3 2.4 -6
v 5.3 2.4 -6.2
v 5.3 2.4 -6.4
v 5.3 2.4 -6.6
v 5.3 2.5 -4.9
v 5.3 2.5 -5.6
v 5.3 2.5 -5.9
v 5.3 2.5 -6
v 5.3 2.5 -6.2
v 5.3 2.5 -6.4
v 5.3 2.5 -6.6
v 5.3 2.5 -6.8
v 5.3 2.5 -6.9
v 5.3 2.5 -7.4
v 5.3 2.6 -4.9
v 5.3 2.6 -5.6
v 5.3 2.6 -6.6
v 5.3 2.6 -7.5
v 5.4 2.3 -5
v 5.4 2.3 -5.1
v 5.4 2.3 -5.2
v 5.4 2.3 -5.3
v 5.4 2.3 -6.2
v 5.4 2.3 -6.3
v 5.4 2.3 -6.5
v 5.4 2.3 -6.7
v 5.4 2.4 -4.9
v 5.4 2.4 -5
v 5.4 2.4 -5.3
v 5.4 2.4 -5.6
v 5.4 2.4 -6.2
v 5.4 2.4 -6.3
v 5.4 2.4 -6.5
v 5.4 2.4 -6.6
v 5.4 2.4 -6.9
v 5.4 2.4 -7.1
v 5.4 2.5 -4.9
v 5.4 2.5 -5.1
v 5.4 2.5 -5.2
v 5.4 2.5 -5.6
v 5.4 2.5 -6.6
v 5.4 2.5 -6.7
v 5.4 2.5 -6.9
v 5.4 2.5 -7.1
v 5.5 2.3 -5.1
v 5.5 2.3 -5.2
v 5.5 2.3 -5.3
v 5.5 2.3 -5.7
v 5.5 2.3 -5.9
v 5.5 2.3 -6
v 5.5 2.3 -6.2
v 5.5 2.3 -6.3
v 5.5 2.3 -6.5
v 5.5 2.3 -6.7
v 5.5 2.3 -6.8
v 5.5 2.3 -6.9
v 5.5 2.3 -7.4
v 5.5 2.4 -5.3
v 5.5 2.4 -5.9
v 5.5 2.4 -6
v 5.5 2.4 -6.2
v 5.5 2.4 -6.3
v 5.5 2.4 -6.5
v 5.5 2.4 -6.9
v 5.5 2.4 -7.1
v 5.5 2.5 -5.1
v 5.5 2.5 -5.2
v 5.5 2.5 -6.7
v 5.5 2.5 -6.8
v 5.5 2.5 -7.1
v 5.5 2.5 -7.4
v 5.8 2.2 -4.9
v 5.8 2.2 -5
v 5.8 2.3 -4.9
v 5.8 2.3 -5
v 5.9 2.2 -7.4
v 5.9 2.2 -7.5
v 5.9 2.3 -7.4
v 5.9 2.3 -7.5
v 6.1 2.3 -5.2
v 6.1 2.3 -5.3
v 6.1 2.5 -5.2
v 6.1 2.5 -5.3
v 6.7 2.2 -4.9
v 6.7 2.2 -5
v 6.7 2.3 -4.9
v 6.7 2.3 -5
v 6.8 2.2 -7.3
v 6.8 2.2 -7.4
v 6.8 2.3 -7.3
v 6.8 2.3 -7.4
v 6.9 2.4 -6.3
v 6.9 2.4 -6.9
v 6.9 2.5 -6.3
v 6.9 2.5 -6.9
v 7 2.3 -6.2
v 7 2.3 -6.6
v 7 2.3 -6.8
v 7 2.3 -7
v 7 2.4 -6.2
v 7 2.4 -7
v 7.3 2.2 -4.9
v 7.3 2.2 -5.3
v 7.3 2.2 -6.9
v 7.3 2.2 -7.3
v 7.3 2.3 -4.9
v 7.3 2.3 -5.3
v 7.3 2.3 -6.9
v 7.3 2.3 -7.3
v 7.4 2.2 -5.3
v 7.4 2.2 -5.8
v 7.4 2.2 -6.2
v 7.4 2.2 -6.6
v 7.4 2.2 -6.8
v 7.4 2.2 -6.9
v 7.4 2.3 -5.3
v 7.4 2.3 -5.8
v 7.4 2.3 -6.2
v 7.4 2.3 -6.6
v 7.4 2.3 -6.8
v 7.4 2.3 -6.9
v 7.5 2.2 -5.8
v 7.5 2.2 -6.2
v 7.5 2.3 -5.8
v 7.5 2.3 -6.2
v 12.6 2 0
v 12.6 2 -12.6
v 12.6 2.2 0
v 12.6 2.2 -12.6
v 0 2 0
v 0 2.2 0
v 12.6 2 0
v 12.6 2.2 0
v 5.2 2.5 -4.9
v 5.2 2.6 -4.9
v 5.3 2.4 -4.9
v 5.3 2.5 -4.9
v 5.3 2.6 -4.9
v 5.4 2.4 -4.9
v 5.4 2.5 -4.9
v 5.5 2.2 -4.9
v 5.5 2.3 -4.9
v 5.8 2.2 -4.9
v 5.8 2.3 -4.9
v 6.3 2.2 -4.9
v 6.3 2.3 -4.9
v 6.7 2.2 -4.9
v 6.7 2.3 -4.9
v 7.1 2.2 -4.9
v 7.1 2.3 -4.9
v 7.3 2.2 -4.9
v 7.3 2.3 -4.9
v 5.1 2.2 -5
v 5.1 2.3 -5
v 5.1 2.5 -5
v 5.2 2.5 -5
v 5.3 2.4 -5
v 5.3 2.5 -5
v 5.4 2.3 -5
v 5.4 2.4 -5
v 5.5 2.2 -5
v 5.5 2.3 -5
v 5.8 2.2 -5
v 5.8 2.3 -5
v 6.3 2.2 -5
v 6.3 2.3 -5
v 6.7 2.2 -5
v 6.7 2.3 -5
v 7.1 2.2 -5
v 7.1 2.3 -5
v 4.9 2.2 -5.1
v 4.9 2.3 -5.1
v 5 2.3 -5.1
v 5 2.4 -5.1
v 5.1 2.2 -5.1
v 5.1 2.3 -5.1
v 5.1 2.4 -5.1
v 5.4 2.3 -5.1
v 5.4 2.5 -5.1
v 5.5 2.3 -5.1
v 5.5 2.5 -5.1
v 6 2.3 -5.2
v 6 2.5 -5.2
v 6.1 2.3 -5.2
v 6.1 2.5 -5.2
v 5.4 2.3 -5.3
v 5.4 2.4 -5.3
v 5.5 2.3 -5.3
v 5.5 2.4 -5.3
v 7.3 2.2 -5.3
v 7.3 2.3 -5.3
v 7.4 2.2 -5.3
v 7.4 2.3 -5.3
v 5 2.4 -5.6
v 5 2.6 -5.6
v 5.1 2.4 -5.6
v 5.1 2.5 -5.6
v 5.1 2.6 -5.6
v 7.4 2.2 -5.8
v 7.4 2.3 -5.8
v 7.5 2.2 -5.8
v 7.5 2.3 -5.8
v 5.2 2.3 -6
v 5.2 2.5 -6
v 5.3 2.4 -6
v 5.3 2.5 -6
v 5.5 2.3 -6
v 5.5 2.4 -6
v 6.6 2.3 -6.2
v 6.6 2.4 -6.2
v 7 2.3 -6.2
v 7 2.4 -6.2
v 5.4 2.3 -6.3
v 5.4 2.4 -6.3
v 5.5 2.3 -6.3
v 5.5 2.4 -6.3
v 6.7 2.4 -6.3
v 6.7 2.5 -6.3
v 6.9 2.4 -6.3
v 6.9 2.5 -6.3
v 5.2 2.4 -6.4
v 5.2 2.5 -6.4
v 5.3 2.4 -6.4
v 5.3 2.5 -6.4
v 4.9 2.3 -6.6
v 4.9 2.4 -6.6
v 5 2.3 -6.6
v 5 2.4 -6.6
v 5.1 2.5 -6.6
v 5.1 2.6 -6.6
v 5.3 2.4 -6.6
v 5.3 2.5 -6.6
v 5.3 2.6 -6.6
v 5.4 2.4 -6.6
v 5.4 2.5 -6.6
v 5.4 2.3 -6.7
v 5.4 2.5 -6.7
v 5.5 2.3 -6.7
v 5.5 2.5 -6.7
v 5.3 2.3 -6.9
v 5.3 2.5 -6.9
v 5.4 2.3 -6.9
v 5.4 2.4 -6.9
v 5.4 2.5 -6.9
v 5.5 2.3 -6.9
v 5.5 2.4 -6.9
v 5.4 2.4 -7.1
v 5.4 2.5 -7.1
v 5.5 2.4 -7.1
v 5.5 2.5 -7.1
v 5.4 2.3 -5.2
v 5.4 2.5 -5.2
v 5.5 2.3 -5.2
v 5.5 2.5 -5.2
v 6 2.3 -5.3
v 6 2.5 -5.3
v 6.1 2.3 -5.3
v 6.1 2.5 -5.3
v 5.2 2.5 -5.6
v 5.2 2.6 -5.6
v 5.3 2.4 -5.6
v 5.3 2.5 -5.6
v 5.3 2.6 -5.6
v 5.4 2.4 -5.6
v 5.4 2.5 -5.6
v 5.2 2.3 -5.9
v 5.2 2.5 -5.9
v 5.3 2.4 -5.9
v 5.3 2.5 -5.9
v 5.5 2.3 -5.9
v 5.5 2.4 -5.9
v 5.2 2.4 -6.2
v 5.2 2.5 -6.2
v 5.3 2.4 -6.2
v 5.3 2.5 -6.2
v 5.4 2.3 -6.2
v 5.4 2.4 -6.2
v 5.5 2.3 -6.2
v 5.5 2.4 -6.2
v 7.4 2.2 -6.2
v 7.4 2.3 -6.2
v 7.5 2.2 -6.2
v 7.5 2.3 -6.2
v 5.4 2.3 -6.5
v 5.4 2.4 -6.5
v 5.5 2.3 -6.5
v 5.5 2.4 -6.5
v 5 2.4 -6.6
v 5 2.6 -6.6
v 5.1 2.4 -6.6
v 5.1 2.6 -6.6
v 5.3 2.3 -6.8
v 5.3 2.5 -6.8
v 5.4 2.3 -6.8
v 5.5 2.3 -6.8
v 5.5 2.5 -6.8
v 6.7 2.4 -6.9
v 6.7 2.5 -6.9
v 6.9 2.4 -6.9
v 6.9 2.5 -6.9
v 7.3 2.2 -6.9
v 7.3 2.3 -6.9
v 7.4 2.2 -6.9
v 7.4 2.3 -6.9
v 6.6 2.3 -7
v 6.6 2.4 -7
v 7 2.3 -7
v 7 2.4 -7
v 6.8 2.2 -7.3
v 6.8 2.3 -7.3
v 7.3 2.2 -7.3
v 7.3 2.3 -7.3
v 5.3 2.2 -7.4
v 5.3 2.3 -7.4
v 5.3 2.5 -7.4
v 5.5 2.3 -7.4
v 5.5 2.5 -7.4
v 5.7 2.2 -7.4
v 5.7 2.3 -7.4
v 5.9 2.2 -7.4
v 5.9 2.3 -7.4
v 6.8 2.2 -7.4
v 6.8 2.3 -7.4
v 4.9 2.2 -7.5
v 4.9 2.3 -7.5
v 4.9 2.4 -7.5
v 5.1 2.4 -7.5
v 5.1 2.6 -7.5
v 5.3 2.2 -7.5
v 5.3 2.3 -7.5
v 5.3 2.6 -7.5
v 5.7 2.2 -7.5
v 5.7 2.3 -7.5
v 5.9 2.2 -7.5
v 5.9 2.3 -7.5
v 0 2 -12.6
v 0 2.2 -12.6
v 12.6 2 -12.6
v 12.6 2.2 -12.6
v 0 2 0
v 12.6 2 0
v 4.3 2 -4.3
v 8.3 2 -4.3
v 4.3 2 -8.3
v 8.3 2 -8.3
v 0 2 -12.6
v 12.6 2 -12.6
v 5.3 2.4 -4.9
v 5.4 2.4 -4.9
v 5.3 2.4 -5
v 5.4 2.4 -5
v 5.2 2.5 -4.9
v 5.3 2.5 -4.9
v 5.2 2.5 -5
v 5.3 2.5 -5
v 0 2.2 0
v 12.6 2.2 0
v 5.5 2.2 -4.9
v 5.8 2.2 -4.9
v 6.3 2.2 -4.9
v 6.7 2.2 -4.9
v 7.1 2.2 -4.9
v 7.3 2.2 -4.9
v 5.1 2.2 -5
v 5.5 2.2 -5
v 5.8 2.2 -5
v 6.3 2.2 -5
v 6.7 2.2 -5
v 7.1 2.2 -5
v 4.9 2.2 -5.1
v 5.1 2.2 -5.1
v 7.3 2.2 -5.3
v 7.4 2.2 -5.3
v 7.4 2.2 -5.8
v 7.5 2.2 -5.8
v 7.4 2.2 -6.2
v 7.5 2.2 -6.2
v 7.4 2.2 -6.6
v 7.4 2.2 -6.8
v 7.3 2.2 -6.9
v 7.4 2.2 -6.9
v 6.8 2.2 -7.3
v 7.3 2.2 -7.3
v 5.3 2.2 -7.4
v 5.7 2.2 -7.4
v 5.9 2.2 -7.4
v 6.8 2.2 -7.4
v 4.9 2.2 -7.5
v 5.3 2.2 -7.5
v 5.7 2.2 -7.5
v 5.9 2.2 -7.5
v 0 2.2 -12.6
v 12.6 2.2 -12.6
v 5.5 2.3 -4.9
v 5.8 2.3 -4.9
v 6.3 2.3 -4.9
v 6.7 2.3 -4.9
v 7.1 2.3 -4.9
v 7.3 2.3 -4.9
v 5.4 2.3 -5
v 5.5 2.3 -5
v 5.8 2.3 -5
v 6.3 2.3 -5
v 6.7 2.3 -5
v 7.1 2.3 -5
v 4.9 2.3 -5.1
v 5 2.3 -5.1
v 5.4 2.3 -5.1
v 5.5 2.3 -5.1
v 6.6 2.3 -5.1
v 7.2 2.3 -5.1
v 5.4 2.3 -5.2
v 5.5 2.3 -5.2
v 6 2.3 -5.2
v 6.1 2.3 -5.2
v 5.4 2.3 -5.3
v 5.5 2.3 -5.3
v 5.7 2.3 -5.3
v 6 2.3 -5.3
v 6.1 2.3 -5.3
v 7.3 2.3 -5.3
v 7.4 2.3 -5.3
v 6.6 2.3 -5.5
v 7.2 2.3 -5.5
v 5.5 2.3 -5.7
v 5.7 2.3 -5.7
v 6.3 2.3 -5.8
v 6.8 2.3 -5.8
v 7.4 2.3 -5.8
v 7.5 2.3 -5.8
v 5.2 2.3 -5.9
v 5.5 2.3 -5.9
v 5.2 2.3 -6
v 5.5 2.3 -6
v 6.3 2.3 -6.1
v 6.8 2.3 -6.1
v 5.4 2.3 -6.2
v 5.5 2.3 -6.2
v 6.6 2.3 -6.2
v 7 2.3 -6.2
v 7.4 2.3 -6.2
v 7.5 2.3 -6.2
v 5.4 2.3 -6.3
v 5.5 2.3 -6.3
v 5.4 2.3 -6.5
v 5.5 2.3 -6.5
v 5.7 2.3 -6.5
v 6.2 2.3 -6.5
v 4.9 2.3 -6.6
v 5 2.3 -6.6
v 7 2.3 -6.6
v 7.4 2.3 -6.6
v 5.4 2.3 -6.7
v 5.5 2.3 -6.7
v 5.7 2.3 -6.7
v 6.2 2.3 -6.7
v 5.3 2.3 -6.8
v 5.4 2.3 -6.8
v 5.5 2.3 -6.8
v 7 2.3 -6.8
v 7.4 2.3 -6.8
v 5.3 2.3 -6.9
v 5.4 2.3 -6.9
v 5.5 2.3 -6.9
v 7.3 2.3 -6.9
v 7.4 2.3 -6.9
v 6.6 2.3 -7
v 7 2.3 -7
v 6.6 2.3 -7.1
v 6.8 2.3 -7.1
v 6.6 2.3 -7.3
v 6.8 2.3 -7.3
v 7.3 2.3 -7.3
v 5.5 2.3 -7.4
v 5.7 2.3 -7.4
v 5.9 2.3 -7.4
v 6.8 2.3 -7.4
v 5.7 2.3 -7.5
v 5.9 2.3 -7.5
v 5 2.4 -5.1
v 5.1 2.4 -5.1
v 5.4 2.4 -5.3
v 5.5 2.4 -5.3
v 5 2.4 -5.6
v 5.1 2.4 -5.6
v 5.3 2.4 -5.6
v 5.4 2.4 -5.6
v 5.3 2.4 -5.9
v 5.5 2.4 -5.9
v 5.3 2.4 -6
v 5.5 2.4 -6
v 5.2 2.4 -6.2
v 5.3 2.4 -6.2
v 5.4 2.4 -6.2
v 5.5 2.4 -6.2
v 6.6 2.4 -6.2
v 7 2.4 -6.2
v 5.4 2.4 -6.3
v 5.5 2.4 -6.3
v 6.7 2.4 -6.3
v 6.9 2.4 -6.3
v 5.2 2.4 -6.4
v 5.3 2.4 -6.4
v 5.4 2.4 -6.5
v 5.5 2.4 -6.5
v 4.9 2.4 -6.6
v 5 2.4 -6.6
v 5.1 2.4 -6.6
v 5.3 2.4 -6.6
v 5.4 2.4 -6.6
v 5.4 2.4 -6.9
v 5.5 2.4 -6.9
v 6.7 2.4 -6.9
v 6.9 2.4 -6.9
v 6.6 2.4 -7
v 7 2.4 -7
v 5.4 2.4 -7.1
v 5.5 2.4 -7.1
v 4.9 2.4 -7.5
v 5.1 2.4 -7.5
v 5.3 2.5 -4.9
v 5.4 2.5 -4.9
v 5.1 2.5 -5
v 5.2 2.5 -5
v 5.4 2.5 -5.1
v 5.5 2.5 -5.1
v 5.4 2.5 -5.2
v 5.5 2.5 -5.2
v 6 2.5 -5.2
v 6.1 2.5 -5.2
v 6 2.5 -5.3
v 6.1 2.5 -5.3
v 5.1 2.5 -5.6
v 5.2 2.5 -5.6
v 5.3 2.5 -5.6
v 5.4 2.5 -5.6
v 5.2 2.5 -5.9
v 5.3 2.5 -5.9
v 5.2 2.5 -6
v 5.3 2.5 -6
v 5.2 2.5 -6.2
v 5.3 2.5 -6.2
v 6.7 2.5 -6.3
v 6.9 2.5 -6.3
v 5.2 2.5 -6.4
v 5.3 2.5 -6.4
v 5.1 2.5 -6.6
v 5.3 2.5 -6.6
v 5.4 2.5 -6.6
v 5.4 2.5 -6.7
v 5.5 2.5 -6.7
v 5.3 2.5 -6.8
v 5.5 2.5 -6.8
v 5.3 2.5 -6.9
v 5.4 2.5 -6.9
v 6.7 2.5 -6.9
v 6.9 2.5 -6.9
v 5.4 2.5 -7.1
v 5.5 2.5 -7.1
v 5.3 2.5 -7.4
v 5.5 2.5 -7.4
v 5.2 2.6 -4.9
v 5.3 2.6 -4.9
v 5 2.6 -5.6
v 5.1 2.6 -5.6
v 5.2 2.6 -5.6
v 5.3 2.6 -5.6
v 5 2.6 -6.6
v 5.1 2.6 -6.6
v 5.3 2.6 -6.6
v 5.1 2.6 -7.5
v 5.3 2.6 -7.5

# faces
f 3/4/1 2/4/1 1/4/1
f 4/4/1 2/4/1 3/4/1
f 7/5/1 6/5/1 5/5/1
f 8/5/1 6/5/1 7/5/1
f 9/5/1 6/5/1 8/5/1
f 10/9/1 9/9/1 8/9/1
f 11/9/1 9/9/1 10/9/1
f 14/9/1 13/9/1 12/9/1
f 15/9/1 13/9/1 14/9/1
f 16/9/1 13/9/1 15/9/1
f 17/9/1 16/9/1 15/9/1
f 18/9/1 16/9/1 17/9/1
f 21/5/1 20/5/1 19/5/1
f 22/5/1 20/5/1 21/5/1
f 23/9/1 22/9/1 21/9/1
f 27/9/1 23/9/1 21/9/1
f 27/9/1 24/9/1 23/9/1
f 28/9/1 24/9/1 27/9/1
f 29/9/1 26/9/1 25/9/1
f 30/9/1 26/9/1 29/9/1
f 34/9/1 32/9/1 31/9/1
f 34/9/1 33/9/1 32/9/1
f 35/9/1 33/9/1 34/9/1
f 38/9/1 37/9/1 36/9/1
f 39/9/1 37/9/1 38/9/1
f 42/5/1 41/5/1 40/5/1
f 43/5/1 41/5/1 42/5/1
f 46/5/1 45/5/1 44/5/1
f 47/5/1 45/5/1 46/5/1
f 50/1/1 49/1/1 48/1/1
f 51/1/1 49/1/1 50/1/1
f 54/5/1 53/5/1 52/5/1
f 55/5/1 53/5/1 54/5/1
f 58/9/1 57/9/1 56/9/1
f 59/9/1 57/9/1 58/9/1
f 62/9/1 61/9/1 60/9/1
f 63/9/1 61/9/1 62/9/1
f 66/5/1 65/5/1 64/5/1
f 67/5/1 65/5/1 66/5/1
f 68/9/2 69/9/2 70/9/2
f 70/9/2 69/9/2 71/9/2
f 72/9/2 73/9/2 76/9/2
f 76/9/2 73/9/2 77/9/2
f 74/9/2 75/9/2 78/9/2
f 78/9/2 75/9/2 79/9/2
f 80/5/2 81/5/2 84/5/2
f 84/5/2 81/5/2 85/5/2
f 86/9/2 87/9/2 93/9/2
f 93/9/2 87/9/2 94/9/2
f 88/9/2 89/9/2 95/9/2
f 95/9/2 89/9/2 96/9/2
f 90/9/2 91/9/2 97/9/2
f 97/9/2 91/9/2 98/9/2
f 82/9/2 83/9/2 99/9/2
f 99/9/2 83/9/2 100/9/2
f 84/9/2 85/9/2 101/9/2
f 92/9/2 93/9/2 102/9/2
f 102/9/2 93/9/2 103/9/2
f 100/9/2 101/9/2 104/9/2
f 99/9/2 100/9/2 104/9/2
f 98/9/2 99/9/2 104/9/2
f 101/9/2 85/9/2 105/9/2
f 104/9/2 101/9/2 105/9/2
f 106/9/2 107/9/2 115/9/2
f 108/9/2 109/9/2 116/9/2
f 110/9/2 111/9/2 118/9/2
f 118/9/2 111/9/2 119/9/2
f 112/9/2 113/9/2 120/9/2
f 120/9/2 113/9/2 121/9/2
f 114/9/2 115/9/2 124/9/2
f 115/9/2 107/9/2 125/9/2
f 124/9/2 115/9/2 125/9/2
f 116/9/2 117/9/2 126/9/2
f 108/9/2 116/9/2 126/9/2
f 126/9/2 117/9/2 127/9/2
f 121/9/2 113/9/2 128/9/2
f 128/9/2 113/9/2 129/9/2
f 122/9/2 123/9/2 130/9/2
f 130/9/2 123/9/2 131/9/2
f 134/9/2 135/9/2 145/9/2
f 135/9/2 136/9/2 145/9/2
f 145/9/2 136/9/2 146/9/2
f 137/9/2 138/9/2 147/9/2
f 147/9/2 138/9/2 148/9/2
f 139/9/2 140/9/2 149/9/2
f 149/9/2 140/9/2 150/9/2
f 143/9/2 144/9/2 151/9/2
f 151/9/2 144/9/2 152/9/2
f 132/9/2 133/9/2 153/9/2
f 153/9/2 133/9/2 154/9/2
f 141/9/2 142/9/2 155/9/2
f 155/9/2 142/9/2 156/9/2
f 152/9/2 144/9/2 157/9/2
f 157/9/2 144/9/2 158/9/2
f 159/5/2 160/5/2 161/5/2
f 161/5/2 160/5/2 162/5/2
f 163/5/2 164/5/2 165/5/2
f 165/5/2 164/5/2 166/5/2
f 167/1/2 168/1/2 169/1/2
f 169/1/2 168/1/2 170/1/2
f 171/5/2 172/5/2 173/5/2
f 173/5/2 172/5/2 174/5/2
f 175/5/2 176/5/2 177/5/2
f 177/5/2 176/5/2 178/5/2
f 179/9/2 180/9/2 181/9/2
f 181/9/2 180/9/2 182/9/2
f 183/9/2 184/9/2 187/9/2
f 185/9/2 186/9/2 187/9/2
f 184/9/2 185/9/2 187/9/2
f 187/9/2 186/9/2 188/9/2
f 189/5/2 190/5/2 193/5/2
f 193/5/2 190/5/2 194/5/2
f 191/5/2 192/5/2 195/5/2
f 195/5/2 192/5/2 196/5/2
f 197/5/2 198/5/2 203/5/2
f 203/5/2 198/5/2 204/5/2
f 199/5/2 200/5/2 205/5/2
f 200/6/2 201/6/2 206/6/2
f 205/5/2 200/5/2 206/5/2
f 201/5/2 202/5/2 207/5/2
f 206/6/2 201/6/2 207/6/2
f 207/5/2 202/5/2 208/5/2
f 209/5/2 210/5/2 211/5/2
f 211/5/2 210/5/2 212/5/2
f 213/4/2 214/4/2 215/4/2
f 215/4/2 214/4/2 216/4/2
f 219/4/3 218/4/3 217/4/3
f 220/4/3 218/4/3 219/4/3
f 224/9/3 222/9/3 221/9/3
f 225/9/3 222/9/3 224/9/3
f 226/9/3 224/9/3 223/9/3
f 227/9/3 224/9/3 226/9/3
f 230/5/3 229/5/3 228/5/3
f 231/5/3 229/5/3 230/5/3
f 234/5/3 233/5/3 232/5/3
f 235/5/3 233/5/3 234/5/3
f 238/5/3 237/5/3 236/5/3
f 239/5/3 237/5/3 238/5/3
f 243/9/3 242/9/3 241/9/3
f 244/9/3 243/9/3 241/9/3
f 245/9/3 243/9/3 244/9/3
f 246/5/3 241/5/3 240/5/3
f 246/9/3 244/9/3 241/9/3
f 247/9/3 244/9/3 246/9/3
f 248/5/3 246/5/3 240/5/3
f 249/5/3 246/5/3 248/5/3
f 252/5/3 251/5/3 250/5/3
f 253/5/3 251/5/3 252/5/3
f 256/5/3 255/5/3 254/5/3
f 257/5/3 255/5/3 256/5/3
f 260/5/3 259/5/3 258/5/3
f 262/5/3 260/5/3 258/5/3
f 263/9/3 261/9/3 260/9/3
f 263/5/3 260/5/3 262/5/3
f 264/9/3 261/9/3 263/9/3
f 267/9/3 266/9/3 265/9/3
f 268/9/3 266/9/3 267/9/3
f 271/1/3 270/1/3 269/1/3
f 272/1/3 270/1/3 271/1/3
f 275/9/3 274/9/3 273/9/3
f 276/9/3 274/9/3 275/9/3
f 279/5/3 278/5/3 277/5/3
f 280/5/3 278/5/3 279/5/3
f 283/9/3 282/9/3 281/9/3
f 284/9/3 282/9/3 283/9/3
f 285/9/3 282/9/3 284/9/3
f 288/5/3 287/5/3 286/5/3
f 289/5/3 287/5/3 288/5/3
f 292/9/3 291/9/3 290/9/3
f 293/9/3 291/9/3 292/9/3
f 294/9/3 292/9/3 290/9/3
f 295/9/3 292/9/3 294/9/3
f 298/9/3 297/9/3 296/9/3
f 299/9/3 297/9/3 298/9/3
f 302/9/3 301/9/3 300/9/3
f 303/9/3 301/9/3 302/9/3
f 306/9/3 305/9/3 304/9/3
f 307/9/3 305/9/3 306/9/3
f 310/9/3 309/9/3 308/9/3
f 311/9/3 309/9/3 310/9/3
f 314/9/3 313/9/3 312/9/3
f 315/9/3 313/9/3 314/9/3
f 319/9/3 317/9/3 316/9/3
f 320/9/3 317/9/3 319/9/3
f 321/9/3 319/9/3 318/9/3
f 322/9/3 319/9/3 321/9/3
f 325/9/3 324/9/3 323/9/3
f 326/9/3 324/9/3 325/9/3
f 329/9/3 328/9/3 327/9/3
f 330/9/3 328/9/3 329/9/3
f 331/9/3 328/9/3 330/9/3
f 332/9/3 330/9/3 329/9/3
f 333/9/3 330/9/3 332/9/3
f 336/9/3 335/9/3 334/9/3
f 337/9/3 335/9/3 336/9/3
f 338/9/4 339/9/4 340/9/4
f 340/9/4 339/9/4 341/9/4
f 342/1/4 343/1/4 344/1/4
f 344/1/4 343/1/4 345/1/4
f 346/9/4 347/9/4 349/9/4
f 349/9/4 347/9/4 350/9/4
f 348/9/4 349/9/4 351/9/4
f 351/9/4 349/9/4 352/9/4
f 353/9/4 354/9/4 355/9/4
f 355/9/4 354/9/4 356/9/4
f 353/9/4 355/9/4 357/9/4
f 357/9/4 355/9/4 358/9/4
f 359/9/4 360/9/4 361/9/4
f 361/9/4 360/9/4 362/9/4
f 363/9/4 364/9/4 365/9/4
f 365/9/4 364/9/4 366/9/4
f 367/5/4 368/5/4 369/5/4
f 369/5/4 368/5/4 370/5/4
f 371/9/4 372/9/4 373/9/4
f 373/9/4 372/9/4 374/9/4
f 375/9/4 376/9/4 377/9/4
f 377/9/4 376/9/4 378/9/4
f 379/9/4 380/9/4 381/9/4
f 381/9/4 380/9/4 382/9/4
f 382/9/4 380/9/4 383/9/4
f 384/9/4 385/9/4 386/9/4
f 386/9/4 385/9/4 387/9/4
f 388/5/4 389/5/4 390/5/4
f 390/5/4 389/5/4 391/5/4
f 392/9/4 393/9/4 394/9/4
f 394/9/4 393/9/4 395/9/4
f 396/5/4 397/5/4 398/5/4
f 398/5/4 397/5/4 399/5/4
f 400/5/4 401/5/4 403/5/4
f 401/9/4 402/9/4 403/9/4
f 403/9/4 402/9/4 404/9/4
f 400/5/4 403/5/4 405/5/4
f 405/5/4 403/5/4 406/5/4
f 407/5/4 408/5/4 409/5/4
f 409/5/4 408/5/4 410/5/4
f 412/9/4 413/9/4 414/9/4
f 411/5/4 412/5/4 416/5/4
f 414/9/4 415/9/4 417/9/4
f 416/5/4 412/5/4 417/5/4
f 412/9/4 414/9/4 417/9/4
f 417/9/4 415/9/4 418/9/4
f 419/5/4 420/5/4 421/5/4
f 421/5/4 420/5/4 422/5/4
f 423/4/4 424/4/4 425/4/4
f 425/4/4 424/4/4 426/4/4
f 429/4/5 428/4/5 427/4/5
f 430/4/5 428/4/5 429/4/5
f 431/4/5 429/4/5 427/4/5
f 431/2/5 430/2/5 429/2/5
f 432/4/5 428/4/5 430/4/5
f 432/2/5 430/2/5 431/2/5
f 433/4/5 431/4/5 427/4/5
f 433/4/5 432/4/5 431/4/5
f 434/4/5 428/4/5 432/4/5
f 434/4/5 432/4/5 433/4/5
f 437/9/5 436/9/5 435/9/5
f 438/9/5 436/9/5 437/9/5
f 441/9/5 440/9/5 439/9/5
f 442/9/5 440/9/5 441/9/5
f 443/4/6 444/4/6 445/4/6
f 445/4/6 444/4/6 446/4/6
f 446/4/6 444/4/6 447/4/6
f 447/4/6 444/4/6 448/4/6
f 448/4/6 444/4/6 449/4/6
f 449/4/6 444/4/6 450/4/6
f 443/4/6 445/4/6 451/4/6
f 451/4/6 445/4/6 452/4/6
f 446/4/6 447/4/6 453/4/6
f 453/4/6 447/4/6 454/4/6
f 448/4/6 449/4/6 455/4/6
f 455/4/6 449/4/6 456/4/6
f 443/4/6 451/4/6 457/4/6
f 457/4/6 451/4/6 458/4/6
f 450/4/6 444/4/6 459/4/6
f 459/4/6 444/4/6 460/4/6
f 460/4/6 444/4/6 461/4/6
f 461/4/6 444/4/6 462/4/6
f 462/4/6 444/4/6 464/4/6
f 463/4/6 464/4/6 465/4/6
f 465/4/6 464/4/6 466/4/6
f 466/4/6 464/4/6 468/4/6
f 467/4/6 468/4/6 470/4/6
f 469/4/6 470/4/6 474/4/6
f 443/4/6 457/4/6 475/4/6
f 471/4/6 472/4/6 476/4/6
f 476/4/6 472/4/6 477/4/6
f 473/4/6 474/4/6 478/4/6
f 476/4/6 477/4/6 479/4/6
f 477/4/6 478/4/6 479/4/6
f 443/4/6 475/4/6 479/4/6
f 475/4/6 476/4/6 479/4/6
f 478/4/6 474/4/6 480/4/6
f 479/4/6 478/4/6 480/4/6
f 464/4/6 444/4/6 480/4/6
f 468/4/6 464/4/6 480/4/6
f 474/4/6 470/4/6 480/4/6
f 470/4/6 468/4/6 480/4/6
f 481/5/6 482/5/6 488/5/6
f 488/5/6 482/5/6 489/5/6
f 483/5/6 484/5/6 490/5/6
f 490/5/6 484/5/6 491/5/6
f 485/5/6 486/5/6 492/5/6
f 490/5/6 491/5/6 495/5/6
f 488/5/6 489/5/6 495/5/6
f 491/5/6 492/5/6 495/5/6
f 487/5/6 488/5/6 495/5/6
f 489/5/6 490/5/6 495/5/6
f 495/5/6 492/5/6 496/5/6
f 496/5/6 492/5/6 497/5/6
f 492/5/6 486/5/6 498/5/6
f 497/5/6 492/5/6 498/5/6
f 496/5/6 497/5/6 500/5/6
f 500/5/6 497/5/6 501/5/6
f 501/5/6 497/5/6 502/5/6
f 499/5/6 500/5/6 503/5/6
f 500/5/6 501/5/6 503/5/6
f 503/5/6 501/5/6 504/5/6
f 504/5/6 501/5/6 505/5/6
f 505/5/6 501/5/6 506/5/6
f 502/5/6 497/5/6 507/5/6
f 498/5/6 486/5/6 508/5/6
f 497/3/6 498/3/6 510/3/6
f 506/5/6 507/5/6 510/5/6
f 505/5/6 506/5/6 510/5/6
f 507/5/6 497/5/6 510/5/6
f 508/5/6 509/5/6 511/5/6
f 510/3/6 498/3/6 511/3/6
f 498/5/6 508/5/6 511/5/6
f 504/7/6 505/7/6 512/7/6
f 505/5/6 510/5/6 513/5/6
f 512/7/6 505/7/6 513/7/6
f 510/5/6 511/5/6 513/5/6
f 512/5/6 513/5/6 514/5/6
f 513/5/6 511/5/6 514/5/6
f 514/5/6 511/5/6 515/5/6
f 511/5/6 509/5/6 516/5/6
f 515/5/6 511/5/6 516/5/6
f 512/5/6 514/5/6 519/5/6
f 518/5/6 519/5/6 520/5/6
f 519/5/6 514/5/6 521/5/6
f 520/5/6 519/5/6 521/5/6
f 514/6/6 515/6/6 522/6/6
f 521/5/6 514/5/6 522/5/6
f 516/5/6 517/5/6 523/5/6
f 522/6/6 515/6/6 523/6/6
f 515/5/6 516/5/6 523/5/6
f 521/5/6 522/5/6 525/5/6
f 522/5/6 523/5/6 525/5/6
f 525/5/6 523/5/6 526/5/6
f 523/5/6 517/5/6 527/5/6
f 526/5/6 523/5/6 527/5/6
f 527/5/6 517/5/6 528/5/6
f 528/5/6 517/5/6 529/5/6
f 525/5/6 526/5/6 530/5/6
f 524/5/6 525/5/6 530/5/6
f 530/5/6 526/5/6 531/5/6
f 531/5/6 526/5/6 533/5/6
f 533/5/6 526/5/6 534/5/6
f 534/5/6 526/5/6 535/5/6
f 493/5/6 494/5/6 536/5/6
f 536/5/6 494/5/6 537/5/6
f 527/5/6 528/5/6 538/5/6
f 538/5/6 528/5/6 539/5/6
f 532/5/6 533/5/6 540/5/6
f 533/5/6 534/5/6 540/5/6
f 540/5/6 534/5/6 541/5/6
f 534/7/6 535/7/6 542/7/6
f 541/5/6 534/5/6 542/5/6
f 535/5/6 526/5/6 543/5/6
f 542/7/6 535/7/6 543/7/6
f 541/5/6 542/5/6 546/5/6
f 542/5/6 543/5/6 546/5/6
f 538/6/6 539/6/6 547/6/6
f 547/6/6 539/6/6 548/6/6
f 544/6/6 545/6/6 549/6/6
f 545/5/6 546/5/6 550/5/6
f 549/6/6 545/6/6 550/6/6
f 546/5/6 543/5/6 551/5/6
f 550/5/6 546/5/6 551/5/6
f 547/5/6 548/5/6 552/5/6
f 552/5/6 548/5/6 553/5/6
f 543/5/6 526/5/6 554/5/6
f 551/5/6 543/5/6 554/5/6
f 547/5/6 552/5/6 555/5/6
f 551/5/6 554/5/6 556/5/6
f 554/5/6 555/5/6 556/5/6
f 556/5/6 555/5/6 557/5/6
f 551/5/6 556/5/6 558/5/6
f 556/7/6 557/7/6 558/7/6
f 557/5/6 555/5/6 559/5/6
f 558/7/6 557/7/6 559/7/6
f 555/5/6 552/5/6 560/5/6
f 559/5/6 555/5/6 560/5/6
f 558/5/6 559/5/6 561/5/6
f 551/5/6 558/5/6 561/5/6
f 561/5/6 559/5/6 562/5/6
f 562/5/6 559/5/6 563/5/6
f 563/5/6 559/5/6 564/5/6
f 562/5/6 563/5/6 565/5/6
f 565/5/6 563/5/6 566/5/6
f 567/9/6 568/9/6 571/9/6
f 571/9/6 568/9/6 572/9/6
f 569/9/6 570/9/6 574/9/6
f 573/9/6 574/9/6 575/9/6
f 574/9/6 570/9/6 576/9/6
f 575/9/6 574/9/6 576/9/6
f 577/9/6 578/9/6 580/9/6
f 580/9/6 578/9/6 581/9/6
f 581/9/6 578/9/6 582/9/6
f 579/9/6 580/9/6 585/9/6
f 580/9/6 581/9/6 585/9/6
f 583/9/6 584/9/6 587/9/6
f 587/9/6 584/9/6 588/9/6
f 585/9/6 586/9/6 589/9/6
f 579/9/6 585/9/6 589/9/6
f 589/9/6 586/9/6 590/9/6
f 590/9/6 586/9/6 591/9/6
f 591/9/6 586/9/6 592/9/6
f 590/9/6 591/9/6 596/9/6
f 596/9/6 591/9/6 597/9/6
f 583/9/6 587/9/6 600/9/6
f 588/9/6 584/9/6 601/9/6
f 583/9/6 600/9/6 602/9/6
f 600/9/6 601/9/6 602/9/6
f 601/9/6 584/9/6 603/9/6
f 602/9/6 601/9/6 603/9/6
f 598/9/6 599/9/6 604/9/6
f 604/9/6 599/9/6 605/9/6
f 594/9/6 595/9/6 606/9/6
f 593/9/6 594/9/6 606/9/6
f 606/9/6 595/9/6 607/9/6
f 608/9/6 609/9/6 612/9/6
f 608/9/6 612/9/6 614/9/6
f 612/9/6 613/9/6 614/9/6
f 614/9/6 613/9/6 615/9/6
f 616/1/6 617/1/6 618/1/6
f 618/1/6 617/1/6 619/1/6
f 610/9/6 611/9/6 620/9/6
f 620/9/6 611/9/6 621/9/6
f 608/9/6 614/9/6 622/9/6
f 622/9/6 614/9/6 623/9/6
f 620/9/6 621/9/6 624/9/6
f 621/9/6 622/9/6 624/9/6
f 624/9/6 622/9/6 625/9/6
f 620/9/6 624/9/6 626/9/6
f 620/9/6 626/9/6 628/9/6
f 626/9/6 627/9/6 628/9/6
f 628/9/6 627/9/6 629/9/6
f 620/9/6 628/9/6 632/9/6
f 620/9/6 632/9/6 634/9/6
f 632/9/6 633/9/6 634/9/6
f 634/9/6 633/9/6 635/9/6
f 635/9/6 636/9/6 637/9/6
f 635/9/6 637/9/6 639/9/6
f 637/9/6 638/9/6 639/9/6
f 639/9/6 638/9/6 640/9/6
f 630/9/6 631/9/6 643/9/6
f 643/9/6 631/9/6 644/9/6
f 641/9/6 642/9/6 645/9/6
f 641/9/6 645/9/6 647/9/6
f 645/9/6 646/9/6 647/9/6
f 647/9/6 646/9/6 648/9/6
f 649/9/6 650/9/6 653/9/6
f 653/9/6 650/9/6 654/9/6
f 651/9/6 652/9/6 655/9/6
f 655/9/6 652/9/6 656/9/6
f 656/9/6 657/9/6 658/9/6
f 658/9/6 657/9/6 659/9/6
